<svg width="71.183mm" height="11.264mm" version="1.1" viewBox="0 0 71.183 11.264" xmlns="http://www.w3.org/2000/svg">
 <g transform="translate(-77.801 -67.695)">
  <g stroke="#000" stroke-linecap="round" stroke-linejoin="round" stroke-width=".13229">
   <path d="m78.072 78.797h1.2883c0.13245 0 0.20469-0.0722 0.20469-0.20469v-1.6857c0-0.0361 0.012-0.0482 0.0361-0.0843l0.74651-0.9512c0.0361-0.0361 0.0722-0.0482 0.0963 0.012l1.1679 2.7573c0.0482 0.10837 0.13245 0.15653 0.24081 0.15653h1.3606c0.15652 0 0.21673-0.10837 0.15652-0.24081l-1.77-3.7446c-0.012-0.0361-0.012-0.0722 0.012-0.0963l1.481-1.8542c0.10837-0.14448 0.0361-0.25285-0.13244-0.25285h-1.4569c-0.10837 0-0.18061 0.0482-0.25285 0.12041l-1.6014 1.8422c-0.0361 0.0482-0.0843 0.0361-0.0843-0.0241v-3.9734c0-0.13245-0.0722-0.20469-0.20469-0.20469h-1.2883c-0.13245 0-0.20469 0.0722-0.20469 0.20469v8.019c0 0.13245 0.0722 0.20469 0.20469 0.20469z"/>
   <path d="m86.476 78.893c1.3485 0 2.3479-0.77059 2.7091-2.0108 0.0963-0.36122 0.15653-0.79467 0.15653-1.2161 0-0.4455-0.0602-0.891-0.18061-1.2642-0.37326-1.1679-1.3485-1.8904-2.673-1.8904-1.3726 0-2.372 0.72243-2.7332 1.9024-0.1204 0.36121-0.1806 0.81875-0.1806 1.2763 0 0.43346 0.0602 0.86692 0.16856 1.2281 0.34918 1.2161 1.3606 1.9746 2.7332 1.9746zm0-1.4569c-0.56591 0-0.93916-0.34917-1.0957-0.90303-0.0602-0.21673-0.0963-0.52979-0.0963-0.84284 0-0.32509 0.0361-0.63815 0.0963-0.85488 0.15653-0.52978 0.52978-0.86691 1.0716-0.86691 0.55386 0 0.92712 0.32509 1.0836 0.86691 0.0602 0.21673 0.0963 0.52979 0.0963 0.85488 0 0.30101-0.0241 0.60203-0.0963 0.84284-0.15652 0.55386-0.52978 0.90303-1.0596 0.90303z"/>
   <path d="m90.642 78.797h1.2883c0.13244 0 0.20468-0.0722 0.20468-0.20469v-1.6857c0-0.0361 0.012-0.0482 0.0361-0.0843l0.74652-0.9512c0.0361-0.0361 0.0722-0.0482 0.0963 0.012l1.1679 2.7573c0.0482 0.10837 0.13245 0.15653 0.24081 0.15653h1.3606c0.15653 0 0.21673-0.10837 0.15653-0.24081l-1.77-3.7446c-0.012-0.0361-0.012-0.0722 0.012-0.0963l1.481-1.8542c0.10837-0.14448 0.0361-0.25285-0.13244-0.25285h-1.4569c-0.10837 0-0.18061 0.0482-0.25285 0.12041l-1.6014 1.8422c-0.0361 0.0482-0.0843 0.0361-0.0843-0.0241v-3.9734c0-0.13245-0.0722-0.20469-0.20469-0.20469h-1.2883c-0.13244 0-0.20469 0.0722-0.20469 0.20469v8.019c0 0.13245 0.0722 0.20469 0.20469 0.20469z"/>
   <path d="m99.191 78.881c1.5532 0 2.6128-0.67427 2.6128-1.8904 0-1.1077-0.90304-1.5291-1.8542-1.8061-0.891-0.27693-1.7338-0.31305-1.7338-0.79467 0-0.34918 0.39733-0.54183 0.91507-0.54183 0.61407 0 0.97529 0.27694 0.97529 0.62611v0.0722c0 0.0482 0.0722 0.0722 0.20468 0.0722h1.18c0.13245 0 0.20469-0.0602 0.20469-0.14449 0-1.1438-1.0234-1.9506-2.5767-1.9506-1.493 0-2.5285 0.73447-2.5285 1.9385 0 1.0716 0.87896 1.481 1.6977 1.7579 0.891 0.36122 1.8061 0.34918 1.8061 0.8308 0 0.32509-0.36121 0.5659-0.91507 0.5659-0.60203 0-1.0234-0.28897-1.0234-0.63815v-0.0843c0-0.0482-0.0722-0.0722-0.20468-0.0722h-1.2161c-0.13245 0-0.20469 0.0722-0.20469 0.20469v0.0602c0 1.0475 1.0234 1.794 2.661 1.794z"/>
   <path d="m105.52 78.893c1.3485 0 2.3479-0.77059 2.7091-2.0108 0.0963-0.36122 0.15653-0.79467 0.15653-1.2161 0-0.4455-0.0602-0.891-0.18061-1.2642-0.37325-1.1679-1.3485-1.8904-2.673-1.8904-1.3726 0-2.372 0.72243-2.7332 1.9024-0.12041 0.36121-0.18061 0.81875-0.18061 1.2763 0 0.43346 0.0602 0.86692 0.16857 1.2281 0.34917 1.2161 1.3606 1.9746 2.7332 1.9746zm0-1.4569c-0.5659 0-0.93916-0.34917-1.0957-0.90303-0.0602-0.21673-0.0963-0.52979-0.0963-0.84284 0-0.32509 0.0361-0.63815 0.0963-0.85488 0.15653-0.52978 0.52979-0.86691 1.0716-0.86691 0.55386 0 0.92712 0.32509 1.0836 0.86691 0.0602 0.21673 0.0963 0.52979 0.0963 0.85488 0 0.30101-0.0241 0.60203-0.0963 0.84284-0.15652 0.55386-0.52978 0.90303-1.0596 0.90303z"/>
   <path d="m112.78 72.596h-1.0957c-0.0482 0-0.0722-0.0241-0.0722-0.0722v-0.12041c0-0.57794 0.18061-0.75855 0.74651-0.77059h0.33714c0.13244 0 0.20469-0.0722 0.20469-0.20469v-0.85487c0-0.13245-0.0722-0.20469-0.20469-0.20469h-0.39734c-1.77-0.0482-2.384 0.43346-2.384 1.9024v0.25285c0 0.0482-0.0361 0.0722-0.0722 0.0722h-0.63814c-0.13245 0-0.20469 0.0722-0.20469 0.20469v1.0234c0 0.13245 0.0722 0.20469 0.20469 0.20469h0.63814c0.0482 0 0.0722 0.0241 0.0722 0.0722v4.4911c0 0.13245 0.0722 0.20469 0.20469 0.20469h1.2883c0.13244 0 0.20468-0.0722 0.20468-0.20469v-4.4911c0-0.0482 0.0241-0.0722 0.0722-0.0722h1.0957c0.13245 0 0.20469-0.0722 0.20469-0.20469v-1.0234c0-0.13245-0.0722-0.20469-0.20469-0.20469z"/>
   <path d="m117.44 72.596h-1.0957c-0.0482 0-0.0722-0.0241-0.0722-0.0722v-0.12041c0-0.57794 0.1806-0.75855 0.74651-0.77059h0.33713c0.13245 0 0.20469-0.0722 0.20469-0.20469v-0.85487c0-0.13245-0.0722-0.20469-0.20469-0.20469h-0.39737c-1.77-0.0482-2.384 0.43346-2.384 1.9024v0.25285c0 0.0482-0.0361 0.0722-0.0722 0.0722h-0.63815c-0.13244 0-0.20469 0.0722-0.20469 0.20469v1.0234c0 0.13245 0.0722 0.20469 0.20469 0.20469h0.63815c0.0482 0 0.0722 0.0241 0.0722 0.0722v4.4911c0 0.13245 0.0722 0.20469 0.20469 0.20469h1.2883c0.13245 0 0.20469-0.0722 0.20469-0.20469v-4.4911c0-0.0482 0.0241-0.0722 0.0722-0.0722h1.0957c0.13245 0 0.20469-0.0722 0.20469-0.20469v-1.0234c0-0.13245-0.0722-0.20469-0.20469-0.20469z"/>
   <path d="m121.25 77.46c-0.67427 0-1.1679-0.27693-1.3365-0.77059-0.0361-0.0963-0.0602-0.21673-0.0843-0.37325 0-0.0482 0.0241-0.0722 0.0722-0.0722h3.6964c0.13245 0 0.20469-0.0722 0.20469-0.20469-0.012-0.31305-0.0361-0.61406-0.0722-0.87895-0.26489-1.6255-1.1438-2.661-2.7693-2.661-1.3485 0-2.372 0.79467-2.6971 1.9746-0.0963 0.34917-0.13244 0.72243-0.13244 1.18 0 0.39734 0.0482 0.77059 0.14449 1.1198 0.32509 1.2763 1.3004 2.1191 2.8175 2.1191 0.98732 0 1.8542-0.40937 2.372-1.0596 0.0722-0.10837 0.0722-0.19265-0.0241-0.28897l-0.6863-0.66223c-0.0963-0.0963-0.19265-0.0843-0.28898 0.0241-0.26489 0.32509-0.67426 0.52978-1.2161 0.55386zm-0.31306-3.4917c0.55387 0 0.90304 0.30101 1.0475 0.75855 0.0241 0.0722 0.0361 0.14449 0.0482 0.25285 0.012 0.0482-0.012 0.0722-0.0602 0.0722h-2.0469c-0.0482 0-0.0722-0.0241-0.0602-0.0722 0.012-0.1204 0.0482-0.21673 0.0722-0.30101 0.13245-0.43346 0.46958-0.71039 0.99936-0.71039z"/>
   <path d="m127.93 72.524c-0.58998 0-1.0114 0.27693-1.3004 0.69835-0.0482 0.0482-0.0843 0.0241-0.0843-0.0361v-0.37326c0-0.13244-0.0722-0.20469-0.20469-0.20469h-1.2883c-0.13244 0-0.20469 0.0722-0.20469 0.20469v5.7794c0 0.13245 0.0722 0.20469 0.20469 0.20469h1.2883c0.13245 0 0.20469-0.0722 0.20469-0.20469v-3.2268c0-0.65019 0.49366-1.0234 1.0355-1.0716 0.24081-0.0361 0.46958-0.0241 0.62611 0.0241 0.14448 0.0241 0.21672 0.012 0.24081-0.13244l0.22877-1.2642c0.0241-0.10837 0-0.20469-0.10837-0.25286-0.14449-0.0843-0.34917-0.14448-0.63815-0.14448z"/>
   <path d="m133.09 73.764v-0.9512c0-0.13244-0.0722-0.20469-0.20469-0.20469h-1.0836c-0.0482 0-0.0722-0.0241-0.0722-0.0722v-1.3606c0-0.13244-0.0722-0.20469-0.20469-0.20469h-1.2281c-0.13245 0-0.20469 0.0722-0.20469 0.20469v1.3606c0 0.0482-0.0241 0.0722-0.0722 0.0722h-0.61407c-0.13245 0-0.20469 0.0722-0.20469 0.20469v0.9512c0 0.13245 0.0722 0.20469 0.20469 0.20469h0.61406c0.0482 0 0.0722 0.0241 0.0722 0.0722v3.1546c0.012 1.3004 0.7706 1.5894 1.9987 1.5894 0.21672 0 0.43345-0.012 0.66222-0.0241 0.13245-0.012 0.20469-0.0963 0.20469-0.21673v-1.0355c0-0.13245-0.0722-0.20469-0.20469-0.20469h-0.33713c-0.48162 0-0.68631-0.25285-0.68631-0.77059v-2.4924c0-0.0482 0.0241-0.0722 0.0722-0.0722h1.0836c0.13244 0 0.20469-0.0722 0.20469-0.20469z"/>
  </g>
  <path d="m135.07 78.845c0.63814 0 1.1198-0.46958 1.1198-1.0475 0-0.57795-0.54182-1.0355-1.1198-1.0355-0.55387 0-1.0957 0.45754-1.0957 1.0355 0 0.57794 0.45754 1.0475 1.0957 1.0475z" stroke-width=".30101"/>
  <g stroke="#000">
   <path d="m139.79 78.881c1.5532 0 2.6128-0.67427 2.6128-1.8904 0-1.1077-0.90304-1.5291-1.8542-1.8061-0.891-0.27693-1.7338-0.31305-1.7338-0.79467 0-0.34918 0.39734-0.54183 0.91508-0.54183 0.61406 0 0.97528 0.27694 0.97528 0.62611v0.0722c0 0.0482 0.0722 0.0722 0.20469 0.0722h1.18c0.13244 0 0.20468-0.0602 0.20468-0.14449 0-1.1438-1.0234-1.9506-2.5767-1.9506-1.493 0-2.5285 0.73447-2.5285 1.9385 0 1.0716 0.87896 1.481 1.6977 1.7579 0.891 0.36122 1.8061 0.34918 1.8061 0.8308 0 0.32509-0.36122 0.5659-0.91508 0.5659-0.60203 0-1.0234-0.28897-1.0234-0.63815v-0.0843c0-0.0482-0.0722-0.0722-0.20469-0.0722h-1.2161c-0.13245 0-0.20469 0.0722-0.20469 0.20469v0.0602c0 1.0475 1.0234 1.794 2.661 1.794z" stroke-linecap="round" stroke-linejoin="round" stroke-width=".13229"/>
   <path d="m146.37 77.46c-0.67427 0-1.1679-0.27693-1.3365-0.77059-0.0361-0.0963-0.0602-0.21673-0.0843-0.37325 0-0.0482 0.0241-0.0722 0.0722-0.0722h3.6964c0.13245 0 0.20469-0.0722 0.20469-0.20469-0.012-0.31305-0.0361-0.61406-0.0722-0.87895-0.26489-1.6255-1.1438-2.661-2.7693-2.661-1.3485 0-2.372 0.79467-2.6971 1.9746-0.0963 0.34917-0.13244 0.72243-0.13244 1.18 0 0.39734 0.0482 0.77059 0.14448 1.1198 0.3251 1.2763 1.3004 2.1191 2.8175 2.1191 0.98732 0 1.8542-0.40937 2.372-1.0596 0.0722-0.10837 0.0722-0.19265-0.0241-0.28897l-0.68631-0.66223c-0.0963-0.0963-0.19265-0.0843-0.28897 0.0241-0.26489 0.32509-0.67427 0.52978-1.2161 0.55386zm-0.31306-3.4917c0.55387 0 0.90304 0.30101 1.0475 0.75855 0.0241 0.0722 0.0361 0.14449 0.0482 0.25285 0.012 0.0482-0.012 0.0722-0.0602 0.0722h-2.0469c-0.0482 0-0.0722-0.0241-0.0602-0.0722 0.012-0.1204 0.0482-0.21673 0.0722-0.30101 0.13245-0.43346 0.46958-0.71039 0.99936-0.71039z" stroke-linecap="round" stroke-linejoin="round" stroke-width=".13229"/>
   <g transform="matrix(.17322 0 0 .17322 78.191 55.644)" stroke-width=".3002" aria-label="köksoffert.se">
    <g transform="matrix(.26458 0 0 .26458 33.195 65.957)" stroke="#000" stroke-width="1.1346">
     <path d="m21.875 61.167v39.008c0 2.0703 0.82031 4.0586 2.2891 5.5234 1.4648 1.4688 3.4531 2.2891 5.5234 2.2891s4.0586-0.82031 5.5234-2.2891c1.4688-1.4648 2.2891-3.4531 2.2891-5.5234 0 0 0-28.492 0.12109-38.977v-0.03125c0-1.0195 0.51953-1.9688 1.375-2.5234 5.625-3.6055 7.8789-10.957 7.8789-19.617 0-7.0117-2.5703-14.312-6.4766-19.039-2.9766-3.6133-6.7344-5.75-10.711-5.75s-7.7344 2.1367-10.711 5.75c-3.9062 4.7266-6.4766 12.027-6.4766 19.039 0 8.6641 2.2656 16.008 7.9609 19.523 0.87891 0.57812 1.4141 1.5586 1.4141 2.6172zm50.473-34.262c0.0039-0.05469 0.0039-0.11328 0.0039-0.16797v-9.375c0-1.7266-1.4023-3.125-3.125-3.125s-3.125 1.3984-3.125 3.125l-0.0039 3.125v19.82c0 4.1445 1.4961 8.1211 4.1602 11.051 0.61328 0.67188 1.2539 1.3789 1.8633 2.0547 1.6016 1.7539 2.5 4.1406 2.5 6.6289v40.141c0 4.3125 3.1758 7.8047 7.0938 7.8047h0.01562c3.918 0 7.0938-3.4922 7.0938-7.8047v-40.141c0-2.4883 0.89844-4.875 2.5-6.6289 0.60938-0.67578 1.25-1.3828 1.8633-2.0547 2.6641-2.9297 4.1602-6.9062 4.1602-11.051v-22.945c0-1.7266-1.3984-3.125-3.125-3.125s-3.125 1.3984-3.125 3.125v25c0 1.7266-1.3984 3.125-3.125 3.125s-3.125-1.3984-3.125-3.125v-25c0-1.7266-1.3984-3.125-3.125-3.125s-3.125 1.3984-3.125 3.125v25c0 1.7266-1.3984 3.125-3.125 3.125s-3.125-1.3984-3.125-3.125z" fill-rule="evenodd" stroke="#000" stroke-width="1.1346"/>
    </g>
   </g>
  </g>
 </g>
</svg>
