<?xml version="1.0" encoding="UTF-8" standalone="no"?>
<svg
   xmlns:dc="http://purl.org/dc/elements/1.1/"
   xmlns:cc="http://creativecommons.org/ns#"
   xmlns:rdf="http://www.w3.org/1999/02/22-rdf-syntax-ns#"
   xmlns:svg="http://www.w3.org/2000/svg"
   xmlns="http://www.w3.org/2000/svg"
   xmlns:sodipodi="http://sodipodi.sourceforge.net/DTD/sodipodi-0.dtd"
   xmlns:inkscape="http://www.inkscape.org/namespaces/inkscape"
   width="135.20209mm"
   height="25.330849mm"
   viewBox="0 0 135.20209 25.330849"
   version="1.1"
   id="svg1624"
   inkscape:version="1.0.1 (3bc2e813f5, 2020-09-07)"
   sodipodi:docname="ballingslov.svg">
  <defs
     id="defs1618" />
  <sodipodi:namedview
     id="base"
     pagecolor="#ffffff"
     bordercolor="#666666"
     borderopacity="1.0"
     inkscape:pageopacity="0.0"
     inkscape:pageshadow="2"
     inkscape:zoom="0.7"
     inkscape:cx="373.87091"
     inkscape:cy="343.64526"
     inkscape:document-units="mm"
     inkscape:current-layer="layer1"
     inkscape:document-rotation="0"
     showgrid="false"
     inkscape:window-width="1431"
     inkscape:window-height="1208"
     inkscape:window-x="789"
     inkscape:window-y="177"
     inkscape:window-maximized="0" />
  <metadata
     id="metadata1621">
    <rdf:RDF>
      <cc:Work
         rdf:about="">
        <dc:format>image/svg+xml</dc:format>
        <dc:type
           rdf:resource="http://purl.org/dc/dcmitype/StillImage" />
        <dc:title></dc:title>
      </cc:Work>
    </rdf:RDF>
  </metadata>
  <g
     inkscape:label="Layer 1"
     inkscape:groupmode="layer"
     id="layer1"
     transform="translate(30.174271,-141.32827)">
    <path
       style="fill:#000000;stroke-width:0.264583"
       d="m 39.369509,166.48323 c -1.30048,-0.41664 -2.328349,-1.18119 -2.732214,-2.03228 -0.577614,-1.21723 -0.499803,-1.83725 0.349925,-2.78826 0.729115,-0.81602 0.736848,-0.85483 0.264583,-1.32709 -0.890468,-0.89047 -0.482103,-2.99221 0.736529,-3.79068 l 0.612293,-0.40119 -0.65265,-0.96174 c -2.571189,-3.78886 -0.38966,-7.90483 4.36976,-8.24458 1.005014,-0.0717 1.870697,0.0521 2.781951,0.39787 l 1.322916,0.50202 0.899023,-0.60868 c 0.552775,-0.37426 1.291561,-0.60868 1.918229,-0.60868 h 1.019207 v 1.39605 1.39606 l -1.058334,-0.10093 c -1.128315,-0.10761 -1.280869,0.10279 -0.768582,1.06001 0.409006,0.76424 0.342177,2.95635 -0.117044,3.83917 -0.965618,1.85635 -2.786478,2.80622 -5.474986,2.85609 -2.108401,0.0391 -2.635221,0.19997 -2.635221,0.80464 0,0.6605 0.861536,0.85642 4.245422,0.96549 2.703224,0.0871 3.489029,0.20498 4.233334,0.63493 1.209582,0.69872 1.905153,2.05613 1.740934,3.39746 -0.171379,1.39979 -0.865402,2.27599 -2.428232,3.06561 -1.162875,0.58754 -1.678736,0.66774 -4.616458,0.71771 -1.81901,0.0309 -3.623683,-0.0451 -4.010385,-0.169 z m 6.920802,-2.48187 c 0.626192,-0.21354 0.952778,-0.50368 1.008615,-0.89604 0.102315,-0.71898 -0.48057,-0.83823 -4.58049,-0.93708 l -2.910417,-0.0702 v 0.79375 c 0,0.6706 0.143672,0.84275 0.926042,1.10955 0.509323,0.17369 1.759479,0.31579 2.778125,0.31579 1.018646,0 2.268802,-0.1421 2.778125,-0.31579 z M 44.419024,153.8603 c 0.705982,-0.89751 0.752819,-2.96674 0.08535,-3.77067 -0.750271,-0.90366 -1.957834,-0.992 -2.867249,-0.20975 -0.676934,0.58227 -0.770771,0.83956 -0.770771,2.11333 0,1.83873 0.567608,2.56423 2.006179,2.56423 0.763151,0 1.127215,-0.16412 1.546491,-0.69714 z m -55.94017,8.01089 c -1.554791,-0.71911 -2.513542,-2.2589 -2.513542,-4.03683 0,-2.52874 2.240774,-4.1775 6.7468755,-4.96433 l 1.8520833,-0.3234 -0.029752,-0.97416 c -0.041747,-1.36691 -0.4762357,-1.77753 -1.8808665,-1.77753 -0.9832038,0 -1.3144574,0.13926 -1.9502905,0.81992 -0.7414878,0.79377 -0.8166258,0.81404 -2.3551118,0.63548 -1.684489,-0.1955 -1.869368,-0.41567 -1.292276,-1.53894 0.928248,-1.80677 2.9634383,-2.82688 5.6398365,-2.82688 2.3760935,0 4.5087293,0.97112 5.2187307,2.3764 0.2230252,0.44143 0.3895884,2.54153 0.4935273,6.22256 0.086286,3.05594 0.2517351,5.76461 0.3676623,6.01927 0.1899417,0.41725 0.025373,0.46302 -1.6645704,0.46302 -1.7797134,0 -1.8838158,-0.0337 -2.0413652,-0.66146 -0.091308,-0.3638 -0.2151922,-0.66146 -0.2752968,-0.66146 -0.060105,0 -0.5968582,0.32267 -1.192785,0.71703 -1.2943716,0.85658 -3.8293304,1.10959 -5.1228594,0.51131 z m 4.1499633,-2.7865 c 0.3368953,-0.12939 0.9399587,-0.54042 1.340141,-0.91341 0.5865363,-0.54668 0.7276042,-0.91016 0.7276042,-1.8748 v -1.19665 l -0.8598959,0.15294 c -1.9981004,0.35536 -2.9418094,0.70107 -3.5361434,1.2954 -1.5731772,1.57318 0.097503,3.39327 2.3282941,2.53652 z m 61.7051097,2.65814 c -1.225518,-0.57535 -2.038776,-1.57595 -2.427221,-2.98637 l -0.264494,-0.96035 1.197436,-0.16413 c 1.883812,-0.2582 2.446496,-0.20467 2.446496,0.23275 0,1.24844 2.376053,1.95505 3.266284,0.97135 1.048811,-1.15892 0.307086,-2.13043 -2.075659,-2.71867 -1.497084,-0.3696 -2.711355,-0.86406 -3.332776,-1.35714 -1.480035,-1.17435 -1.701993,-4.17038 -0.432287,-5.83505 1.896837,-2.48688 6.194173,-2.70828 8.256637,-0.42538 0.814414,0.90146 1.434442,2.21783 1.162598,2.46829 -0.05386,0.0496 -0.818854,0.17214 -1.69999,0.27226 -1.546418,0.17571 -1.612974,0.15809 -1.916078,-0.50715 -0.580406,-1.27385 -2.122181,-1.39708 -2.886424,-0.23069 -0.736211,1.1236 -0.151858,1.81572 2.092621,2.47855 3.750672,1.10762 4.746622,2.08336 4.746622,4.65029 0,2.82203 -1.740524,4.33624 -5.197173,4.52138 -1.428798,0.0765 -2.099942,-0.0172 -2.936592,-0.40994 z m 21.06055,-0.0639 c -2.503731,-1.13508 -3.694118,-3.11142 -3.904419,-6.4823 -0.237943,-3.81392 1.328544,-6.89506 4.030069,-7.92678 1.736794,-0.66329 4.250233,-0.44694 5.662081,0.48738 3.767188,2.49301 4.222289,9.51357 0.830239,12.80755 -1.673143,1.62477 -4.45765,2.09355 -6.61797,1.11415 z m 4.141306,-3.36455 c 1.130265,-1.683 1.130302,-5.83078 6.6e-5,-7.51392 -0.431903,-0.64319 -0.817229,-0.89558 -1.462588,-0.95801 -1.751504,-0.16942 -2.678784,1.4627 -2.678784,4.71497 0,3.35832 0.841544,4.86063 2.637321,4.70813 0.697458,-0.0592 1.058193,-0.28738 1.503985,-0.95117 z m -109.710054,-6.64301 v -10.3431 l 3.638021,0.002 c 6.438223,0.004 8.919949,0.73163 10.062697,2.9522 1.168697,2.271 0.729572,5.06879 -0.995779,6.3444 l -0.780074,0.57673 1.156019,1.08161 c 2.922037,2.73394 1.929767,7.3172 -1.968384,9.09189 -0.712251,0.32427 -2.101891,0.4465 -6.019271,0.52948 l -5.093229,0.10789 z m 8.194376,6.86813 c 1.569898,-0.30288 2.388957,-1.2448 2.388957,-2.74732 0,-2.14538 -1.369225,-3.08683 -4.489418,-3.08683 h -1.860581 v 2.86632 c 0,1.57648 0.07937,2.9457 0.176389,3.04271 0.242916,0.24292 2.353932,0.20115 3.784653,-0.0749 z m 0.641859,-9.11298 c 1.157467,-0.48362 1.593227,-1.63322 1.141597,-3.01171 -0.405531,-1.23779 -1.150387,-1.60084 -3.732099,-1.81908 l -2.012399,-0.17011 v 2.68466 2.68466 h 1.860581 c 1.02332,0 2.257364,-0.16579 2.74232,-0.36842 z m 22.9137649,2.2205 v -10.31875 h 1.8520833 1.8520833 v 10.31875 10.31875 H 3.4278122 1.5757289 Z m 6.8791665,0 v -10.31875 h 1.8520826 1.852084 v 10.31875 10.31875 H 10.306978 8.4548954 Z m 6.8791666,2.91042 v -7.40834 h 1.852083 1.852083 v 7.40834 7.40833 h -1.852083 -1.852083 z m 6.614583,0 v -7.40834 h 1.984375 c 1.940277,0 1.984375,0.0147 1.984375,0.66146 0,0.3638 0.02976,0.65995 0.06614,0.65811 0.03638,-0.002 0.767533,-0.35903 1.624785,-0.79375 2.731646,-1.38524 4.956382,-0.85301 6.111378,1.46205 0.477075,0.95624 0.526537,1.59893 0.529167,6.87568 l 0.0029,5.82083 -1.918229,0.0777 -1.918229,0.0777 v -5.44757 -5.44758 l -0.673225,-0.67322 c -0.397105,-0.39711 -0.840049,-0.60921 -1.079973,-0.51714 -0.223721,0.0858 -0.566478,0.15608 -0.761693,0.15608 -0.195215,0 -0.72126,0.30824 -1.168985,0.68498 l -0.814051,0.68498 v 5.26814 5.26815 H 23.933005 21.94863 Z m 43.038888,7.23194 c -0.09701,-0.097 -0.176389,-4.74045 -0.176389,-10.31875 v -10.14236 h 1.984375 1.984375 v 10.31875 10.31875 h -1.807986 c -0.994394,0 -1.887362,-0.0794 -1.984375,-0.17639 z m 22.867212,-6.90121 c -1.215895,-3.89269 -2.269439,-7.23171 -2.341213,-7.42006 -0.101401,-0.26609 0.332304,-0.32508 1.945085,-0.26458 l 2.075584,0.0779 1.20835,4.94887 c 0.664591,2.72188 1.281057,5.02158 1.369925,5.11044 0.08886,0.0889 0.724201,-2.16789 1.411856,-5.01501 l 1.250278,-5.1766 h 1.937838 1.937834 l -0.240641,0.72761 c -0.132352,0.40018 -1.025284,3.34698 -1.984293,6.54844 -0.959011,3.20145 -1.865794,6.20778 -2.015074,6.68072 l -0.271418,0.8599 h -2.036699 -2.036699 z m 13.287585,-8.12633 c -0.88147,-0.38337 -1.670771,-1.57536 -1.670771,-2.52315 0,-0.99737 0.797991,-2.14544 1.774941,-2.55364 1.15405,-0.48219 2.0796,-0.28893 3.05371,0.63763 0.58908,0.56033 0.7276,0.92503 0.7276,1.91562 0,1.33522 -0.5813,2.21337 -1.76242,2.66243 -0.84418,0.32095 -1.10502,0.30389 -2.12306,-0.13889 z m 1.9995,-0.43432 c 0.9742,-0.3396 1.35682,-0.92865 1.35682,-2.08883 0,-1.18632 -0.39524,-1.76685 -1.43698,-2.11065 -2.10481,-0.69465 -3.889677,1.60347 -2.63576,3.39369 0.36396,0.51962 1.16359,1.02293 1.71815,1.08144 0.0874,0.009 0.53642,-0.11482 0.99777,-0.27565 z m -2.08277,-2.10333 v -1.602 l 1.25677,0.0806 c 1.0821,0.0694 1.26879,0.1654 1.34323,0.69051 0.0476,0.33544 -0.05,0.77431 -0.2168,0.97528 -0.22318,0.26892 -0.22609,0.50958 -0.011,0.91148 0.2349,0.4389 0.21436,0.54608 -0.10462,0.54608 -0.21828,0 -0.52432,-0.23813 -0.68008,-0.52917 -0.15576,-0.29104 -0.39807,-0.52917 -0.53847,-0.52917 -0.1404,0 -0.25528,0.23813 -0.25528,0.52917 0,0.29398 -0.17639,0.52917 -0.39687,0.52917 -0.30908,0 -0.39688,-0.35439 -0.39688,-1.602 z m 1.8023,-0.58385 c 0.0611,-0.3175 -0.0813,-0.45999 -0.45998,-0.45999 -0.37864,0 -0.54857,0.16993 -0.54857,0.54857 0,0.67803 0.87573,0.60111 1.00855,-0.0886 z m -87.527298,-0.59228 v -1.71979 h 1.852083 1.852083 v 1.71979 1.71979 h -1.852083 -1.852083 z m 57.679165,-0.13229 v -1.5875 h 4.894791 4.894792 v 1.5875 1.5875 h -4.894792 -4.894791 z"
       id="path2233" />
  </g>
</svg>
