<?xml version="1.0" encoding="UTF-8" standalone="no"?>
<svg
   xmlns:dc="http://purl.org/dc/elements/1.1/"
   xmlns:cc="http://creativecommons.org/ns#"
   xmlns:rdf="http://www.w3.org/1999/02/22-rdf-syntax-ns#"
   xmlns:svg="http://www.w3.org/2000/svg"
   xmlns="http://www.w3.org/2000/svg"
   xmlns:sodipodi="http://sodipodi.sourceforge.net/DTD/sodipodi-0.dtd"
   xmlns:inkscape="http://www.inkscape.org/namespaces/inkscape"
   width="71.503639mm"
   height="61.091358mm"
   viewBox="0 0 71.503641 61.091359"
   version="1.1"
   id="svg1624"
   inkscape:version="1.0.1 (3bc2e813f5, 2020-09-07)"
   sodipodi:docname="hth.svg">
  <defs
     id="defs1618" />
  <sodipodi:namedview
     id="base"
     pagecolor="#ffffff"
     bordercolor="#666666"
     borderopacity="1.0"
     inkscape:pageopacity="0.0"
     inkscape:pageshadow="2"
     inkscape:zoom="0.98994949"
     inkscape:cx="160.23902"
     inkscape:cy="-10.640584"
     inkscape:document-units="mm"
     inkscape:current-layer="layer1"
     inkscape:document-rotation="0"
     showgrid="false"
     inkscape:window-width="1431"
     inkscape:window-height="1208"
     inkscape:window-x="789"
     inkscape:window-y="177"
     inkscape:window-maximized="0" />
  <metadata
     id="metadata1621">
    <rdf:RDF>
      <cc:Work
         rdf:about="">
        <dc:format>image/svg+xml</dc:format>
        <dc:type
           rdf:resource="http://purl.org/dc/dcmitype/StillImage" />
        <dc:title></dc:title>
      </cc:Work>
    </rdf:RDF>
  </metadata>
  <g
     inkscape:label="Layer 1"
     inkscape:groupmode="layer"
     id="layer1"
     transform="translate(-17.951547,-202.1343)">
    <path
       style="fill:#000000;stroke-width:0.264583"
       d="m 18.100854,262.49798 c 5.653542,-27.55088 12.180461,-58.24439 12.48411,-58.70782 1.012642,-1.54548 1.003644,-1.54418 11.299194,-1.62964 7.982921,-0.0662 9.471033,-0.0203 9.471033,0.29213 0,0.2039 -0.9525,4.97461 -2.116667,10.60156 -1.164167,5.62695 -2.116666,10.28776 -2.116666,10.35735 0,0.0696 -1.017442,0.12653 -2.260984,0.12653 -2.976009,0 -3.296428,0.29453 -3.975558,3.65428 l -0.491418,2.43114 h -3.400724 c -3.110949,0 -3.389865,-0.0395 -3.273277,-0.46302 0.0701,-0.25467 0.324485,-1.41553 0.565312,-2.57969 0.240826,-1.16417 0.497178,-2.32503 0.569671,-2.57969 0.11851,-0.41632 -0.107219,-0.46302 -2.237964,-0.46302 -3.539328,0 -3.26908,-0.44187 -5.109824,8.35482 -0.850267,4.06334 -1.547283,7.59625 -1.548921,7.85091 -0.0026,0.40622 0.283472,0.46302 2.332152,0.46302 3.007068,0 3.248525,-0.22725 3.935766,-3.70417 l 0.496824,-2.51354 3.363013,-0.074 c 1.849659,-0.0407 3.363015,-0.0241 3.363015,0.037 0,0.21859 -1.072094,5.33784 -1.211016,5.78262 -0.126677,0.40556 0.149513,0.46193 2.592596,0.52916 l 2.734379,0.0752 -2.371344,11.44323 -2.371347,11.44323 H 28.38688 17.951547 Z m 38.016837,0.56282 c 0,-0.2545 4.493246,-21.86658 4.655174,-22.39094 0.121185,-0.39242 0.478692,-0.46302 2.344801,-0.46302 2.970157,0 3.153865,-0.17174 3.891579,-3.63802 l 0.57718,-2.71198 h 3.365937 3.365939 l -0.624113,2.84427 c -0.343262,1.56435 -0.628401,2.9931 -0.63364,3.175 -0.0069,0.24049 0.632172,0.33073 2.342415,0.33073 1.85208,0 2.469914,-0.0984 2.907046,-0.46302 0.45503,-0.37954 0.841928,-1.85346 2.145979,-8.17526 0.874977,-4.24172 1.590868,-7.78383 1.590868,-7.87135 0,-0.26409 -4.496532,-0.17848 -5.008189,0.0954 -0.580612,0.31074 -0.953664,1.23082 -1.345059,3.3174 -0.517197,2.75726 -0.143791,2.51355 -3.85104,2.51355 -1.809202,0 -3.289461,-0.10596 -3.289461,-0.23546 0,-0.1295 0.238125,-1.39277 0.529167,-2.80725 0.291041,-1.41449 0.529166,-2.67775 0.529166,-2.80725 0,-0.12951 -1.190625,-0.23546 -2.645833,-0.23546 -1.455208,0 -2.639269,-0.0893 -2.631244,-0.19844 0.008,-0.10914 0.996135,-4.9014 2.195806,-10.64948 l 2.18122,-10.45104 10.371901,-0.0692 c 8.49289,-0.0567 10.371899,-0.005 10.371899,0.28298 0,0.29737 -11.603068,56.50239 -12.049465,58.36736 -0.08391,0.35055 -0.550352,1.03516 -1.036545,1.52135 l -0.883989,0.88399 h -9.68375 c -5.326062,0 -9.683749,-0.0742 -9.683749,-0.16479 z m -5.134079,-28.60865 c 0.632053,-3.01956 1.152819,-5.5794 1.157259,-5.68854 0.0045,-0.10914 -1.003962,-0.19844 -2.240889,-0.19844 -1.896181,0 -2.331966,-0.083 -2.778124,-0.52916 -0.612119,-0.61212 -0.644973,-1.04544 -0.219142,-2.89024 l 0.310026,-1.3431 h 8.421224 c 4.631674,0 8.417041,0.0893 8.41193,0.19844 -0.0051,0.10914 -0.174641,0.96986 -0.37673,1.91271 -0.509947,2.37917 -0.905991,2.65135 -3.857863,2.65135 h -2.333178 l -0.306456,1.52136 c -1.317204,6.53905 -1.905936,8.95234 -2.286579,9.37294 -0.359281,0.397 -0.84681,0.48279 -2.743791,0.48279 h -2.306875 z"
       id="path2249" />
  </g>
</svg>
