<?xml version="1.0" encoding="UTF-8" standalone="no"?>
<svg
   xmlns:dc="http://purl.org/dc/elements/1.1/"
   xmlns:cc="http://creativecommons.org/ns#"
   xmlns:rdf="http://www.w3.org/1999/02/22-rdf-syntax-ns#"
   xmlns:svg="http://www.w3.org/2000/svg"
   xmlns="http://www.w3.org/2000/svg"
   xmlns:sodipodi="http://sodipodi.sourceforge.net/DTD/sodipodi-0.dtd"
   xmlns:inkscape="http://www.inkscape.org/namespaces/inkscape"
   width="624.9458mm"
   height="76.855179mm"
   viewBox="0 0 624.94581 76.855179"
   version="1.1"
   id="svg1624"
   inkscape:version="1.0.1 (3bc2e813f5, 2020-09-07)"
   sodipodi:docname="marbodal.svg">
  <defs
     id="defs1618" />
  <sodipodi:namedview
     id="base"
     pagecolor="#ffffff"
     bordercolor="#666666"
     borderopacity="1.0"
     inkscape:pageopacity="0.0"
     inkscape:pageshadow="2"
     inkscape:zoom="0.24748737"
     inkscape:cx="878.7016"
     inkscape:cy="-122.03301"
     inkscape:document-units="mm"
     inkscape:current-layer="layer1"
     inkscape:document-rotation="0"
     showgrid="false"
     inkscape:window-width="1431"
     inkscape:window-height="1208"
     inkscape:window-x="32"
     inkscape:window-y="37"
     inkscape:window-maximized="0" />
  <metadata
     id="metadata1621">
    <rdf:RDF>
      <cc:Work
         rdf:about="">
        <dc:format>image/svg+xml</dc:format>
        <dc:type
           rdf:resource="http://purl.org/dc/dcmitype/StillImage" />
        <dc:title></dc:title>
      </cc:Work>
    </rdf:RDF>
  </metadata>
  <g
     inkscape:label="Layer 1"
     inkscape:groupmode="layer"
     id="layer1"
     transform="translate(173.85382,-125.15645)">
    <path
       style="fill:#000000;stroke-width:0.264583"
       d="m 184.12741,201.84806 c -17.19431,-2.13969 -29.73249,-13.40053 -33.36472,-29.96564 -0.34629,-1.5793 -0.58579,-3.91769 -0.68276,-6.66599 -0.25529,-7.2351 0.91594,-12.79017 4.01643,-19.05 2.06671,-4.17262 4.26096,-7.14375 7.72626,-10.46178 2.95727,-2.83162 5.42687,-4.57713 9.07274,-6.41261 11.87458,-5.97817 27.24037,-5.43465 38.67523,1.36804 10.70105,6.36613 17.41829,17.82198 18.11838,30.89982 1.05039,19.6216 -12.4252,36.54153 -31.7876,39.91242 -2.9328,0.51058 -9.10701,0.70762 -11.77396,0.37574 z m 9.99919,-12.31254 c 4.49871,-0.92528 8.44889,-2.9923 11.75528,-6.1512 5.63785,-5.38636 8.49003,-12.88533 8.0614,-21.19512 -0.53771,-10.4248 -6.54518,-19.38555 -15.53244,-23.16824 -5.88709,-2.47784 -13.52402,-2.44416 -19.54646,0.0862 -6.83133,2.87022 -12.06323,9.04529 -14.20953,16.77119 -1.01111,3.63951 -1.17922,9.56101 -0.38119,13.42631 2.14935,10.4105 9.70407,18.21919 19.58917,20.24767 2.44647,0.50203 7.78365,0.49329 10.26377,-0.0168 z m -367.98042,-25.91091 v -37.17828 l 7.05193,0.0705 7.05193,0.0705 11.03764,17.15029 c 6.0707,9.43266 11.15468,17.26735 11.29775,17.41041 0.17043,0.17043 4.12773,-5.76263 11.47762,-17.20807 l 11.2175,-17.46819 7.07761,-0.008 7.0776,-0.008 v 37.17396 37.17395 h -6.61458 -6.61459 v -26.63576 -26.63583 l -11.70781,17.4994 c -6.43929,9.62466 -11.82687,17.49978 -11.97239,17.50027 -0.14552,5.3e-4 -5.47346,-7.82414 -11.83986,-17.38805 l -11.57528,-17.38892 -2.5e-4,26.52448 -2.4e-4,26.52447 h -6.48229 -6.48229 z m 84.666661,37.0444 c 0,-0.11947 31.27504,-71.79919 32.296303,-74.02037 l 0.336732,-0.73237 6.091735,0.0709 6.091737,0.0709 15.023647,34.39583 c 8.263006,18.91772 15.614954,35.73528 16.33766,37.3724 l 1.314014,2.97656 -6.929768,-0.003 -6.929768,-0.003 -3.740682,-8.92673 -3.740679,-8.92674 h -17.629914 -17.629917 l -3.78992,8.86354 -3.78992,8.86354 -6.65563,0.0707 c -3.66059,0.0389 -6.65563,0.006 -6.65563,-0.0723 z m 46.910692,-39.61977 c -2.406591,-5.56617 -5.245621,-12.14438 -6.308952,-14.61823 -1.063334,-2.47385 -2.026698,-4.47887 -2.140807,-4.45559 -0.198176,0.0404 -12.531763,28.57449 -12.531763,28.99254 0,0.11088 5.705357,0.20159 12.678572,0.20159 h 12.678571 z m 42.25389119,2.57969 v -37.17396 l 18.32239481,0.002 c 21.372281,0.002 22.449934,0.0881 28.249651,2.26203 4.417036,1.65565 8.835263,5.249 11.04289,8.9812 4.291648,7.25544 4.194024,18.17207 -0.223631,25.00705 -2.712355,4.19653 -6.899259,7.38369 -12.015266,9.14626 -1.164166,0.40107 -2.152697,0.75497 -2.196737,0.78643 -0.04404,0.0315 4.391041,6.31454 9.855729,13.96238 5.46469,7.64785 9.935799,13.97174 9.935799,14.05309 0,0.0814 -3.433966,0.14791 -7.631038,0.14791 h -7.631038 l -9.103857,-12.95315 -9.103857,-12.95311 -8.268229,-0.0115 -8.268229,-0.0115 v 12.96458 12.96458 H 6.4597152 -0.02257581 Z M 36.699514,162.82536 c 4.383289,-0.87412 7.836691,-3.27413 9.43833,-6.55936 2.966469,-6.08473 0.87648,-13.22072 -4.688794,-16.00929 -3.394835,-1.70104 -3.6429,-1.7283 -16.66694,-1.83153 l -11.840104,-0.0939 v 12.45036 12.45036 h 10.859071 c 8.70812,0 11.263027,-0.0806 12.898437,-0.4067 z m 41.32999,0.80467 v -37.20021 l 19.645311,0.0963 c 18.881965,0.0926 19.733365,0.1179 21.911145,0.65174 8.63158,2.11583 13.98024,6.71405 15.77835,13.56458 0.61135,2.32916 0.61047,7.20141 -0.003,9.525 -0.84214,3.19646 -2.16715,5.4815 -4.52594,7.80521 -1.18173,1.16417 -2.89406,2.54914 -3.80518,3.07772 l -1.65656,0.96105 1.79343,0.7117 c 6.54725,2.59818 10.39987,6.31394 12.14504,11.71354 0.65397,2.02338 0.79087,7.77176 0.24516,10.29402 -0.73811,3.41159 -2.27748,6.22078 -4.76531,8.69613 -2.54039,2.52769 -4.96914,3.96836 -8.87417,5.26395 -5.61227,1.86201 -5.30691,1.84057 -27.715105,1.94523 l -20.174478,0.0942 V 163.63 Z m 39.632516,25.11841 c 4.1053,-0.83094 7.06591,-2.80672 8.44357,-5.63484 0.64336,-1.3207 0.728,-1.79837 0.73342,-4.13884 0.006,-2.36461 -0.0721,-2.80502 -0.72937,-4.14352 -1.26723,-2.58051 -3.59617,-4.21837 -7.55812,-5.31539 -1.90571,-0.52766 -2.7781,-0.56684 -14.79129,-0.66419 L 90.994086,168.7482 v 10.20651 10.20651 h 12.314294 c 10.10906,0 12.67946,-0.0739 14.35364,-0.41278 z m -4.02527,-31.4652 c 3.98376,-0.76221 7.121,-2.86896 8.4001,-5.6409 0.47263,-1.02417 0.57354,-1.73089 0.57417,-4.0207 0,-2.35718 -0.0905,-2.96336 -0.60155,-4.00061 -1.22629,-2.48891 -3.80318,-4.30966 -7.24919,-5.12205 -1.34144,-0.31624 -3.86535,-0.3953 -12.71984,-0.39843 l -11.046354,-0.004 v 9.78958 9.78958 h 10.295464 c 8.00293,0 10.75235,-0.0874 12.3472,-0.39256 z m 127.37608,6.33133 v -37.18831 l 16.86719,0.0897 c 16.34437,0.0869 16.95632,0.10831 19.74318,0.69148 8.25812,1.72811 14.80907,5.13532 20.1523,10.4814 4.99446,4.99714 8.10721,10.84537 9.69627,18.21737 0.83463,3.87198 0.83685,11.29918 0.005,15.15863 -1.5639,7.25189 -4.53525,12.98089 -9.29487,17.92124 -6.33024,6.57059 -14.52652,10.43465 -24.49258,11.54678 -1.31551,0.14681 -9.16057,0.2667 -17.52865,0.2679 l -15.14734,0.002 z m 34.6216,24.52672 c 7.89564,-2.04567 13.28391,-6.33023 16.44552,-13.07694 1.75628,-3.74776 2.23242,-6.18969 2.2298,-11.43542 -0.003,-3.34752 -0.11705,-4.95384 -0.45124,-6.2805 -2.38567,-9.47111 -8.61518,-15.76993 -18.05297,-18.25383 -1.92551,-0.50676 -3.0067,-0.56682 -11.9724,-0.66507 l -9.85573,-0.108 v 25.30999 25.30999 l 9.72344,-0.1138 c 8.89323,-0.10408 9.91214,-0.16269 11.93358,-0.68642 z m 34.17006,12.55376 c 0,-0.0643 7.27562,-16.76487 16.16805,-37.11236 8.89241,-20.34748 16.22833,-37.14642 16.30201,-37.33096 0.10399,-0.26036 1.50461,-0.31964 6.25192,-0.26458 l 6.11794,0.0709 14.22021,32.54375 c 7.82111,17.89906 15.16724,34.71663 16.32474,37.37239 l 2.10455,4.82864 -6.92856,-0.006 -6.92857,-0.006 -3.72398,-8.92342 -3.72399,-8.92342 -17.61384,-0.068 -17.61384,-0.068 -3.80352,8.93156 -3.80349,8.93155 -6.67483,0.0707 c -3.67114,0.0389 -6.6748,0.0181 -6.6748,-0.0462 z m 50.54126,-31.31144 c -6.22411,-14.54325 -11.90669,-27.44168 -12.07505,-27.40819 -0.20151,0.0401 -12.53704,28.56661 -12.53704,28.99254 0,0.11088 5.70968,0.20159 12.6882,0.20159 h 12.68822 z m 38.62332,-5.75468 v -37.17396 h 6.61459 6.61458 v 31.22083 31.22083 h 19.44687 19.44688 v 5.95313 5.95312 h -26.06146 -26.06146 z"
       id="path2217" />
  </g>
</svg>
