<svg width="135.72mm" height="39.947mm" version="1.1" viewBox="0 0 135.72 39.947" xmlns="http://www.w3.org/2000/svg">
 <g transform="translate(-47.054 -96.519)">
  <path d="m47.122 118.39 0.06798-18.058 6.4823 0.0125c7.4337 0.0143 7.9555 0.13621 9.3878 2.1925l0.79869 1.1467 0.08018 8.1656c0.08868 9.0305-0.01744 9.9041-1.367 11.254-0.93038 0.93038-1.4286 1.0492-5.5262 1.3184l-2.5797 0.16943v11.857h-7.412zm9.0449-0.34963c0.35057-0.35057 0.41577-1.2551 0.41577-5.7679 0-5.7649-0.05106-5.9872-1.3758-5.9872h-0.74083v12.171h0.64256c0.35341 0 0.82966-0.1871 1.0583-0.41578zm14.478 17.959c-1.3935-0.68661-2.1698-2.1096-2.4538-4.4984-0.13501-1.1353-0.21256-7.0648-0.17233-13.177l0.07313-11.112 6.2177-0.149v11.631c0 10.221 0.05041 11.682 0.41577 12.047 0.22867 0.22868 0.4583 0.41578 0.51027 0.41578 0.05197 0 0.28159-0.1871 0.51027-0.41578 0.36537-0.36536 0.41577-1.8259 0.41577-12.047v-11.631l3.1759 0.0743c1.7468 0.0409 3.1755 0.16358 3.175 0.27272-5.1e-4 0.10914-9.3e-4 6.6278-9.3e-4 14.486v14.288h-3.2033c-2.6394 0-3.1782-0.0653-3.0609-0.37101 0.25197-0.65661-0.10588-0.65771-1.0702-3e-3 -1.1364 0.77119-3.1789 0.85683-4.5323 0.19003zm18.614-0.0434c-1.058-0.65353-1.6164-1.3124-2.1066-2.4855-0.34708-0.83067-0.40696-2.8454-0.40696-13.691v-12.717l6.2177 0.149 0.069 11.618c0.0471 7.9282 0.16092 11.729 0.35851 11.967 0.20988 0.25289 0.42752 0.27506 0.79094 0.0806 0.48058-0.2572 0.50139-0.75642 0.50139-12.033v-11.765h6.6146v29.104h-3.175c-2.967 0-3.175-0.0337-3.175-0.51382 0-0.48847-0.0555-0.48209-1.1245 0.1291-1.4047 0.80314-3.4066 0.87202-4.5641 0.15703zm18.847 0.22031c-2.6313-0.66208-3.1045-1.7318-3.1045-7.0178v-3.8395l6.2177 0.149 0.0763 2.631c0.0908 3.1286 0.49083 3.9078 1.4922 2.9063 0.31621-0.3162 0.41578-0.98441 0.41578-2.7902 0-2.8689-0.1591-3.086-3.4756-4.7421-1.2171-0.60778-2.6-1.396-3.0731-1.7516-1.5283-1.1487-1.654-1.6742-1.6476-6.8899 9e-3 -7.5606 0.29354-7.8686 7.2702-7.8785 3.7784-5e-3 4.3328 0.0517 5.1594 0.53055 1.524 0.88296 1.9477 2.1125 2.0718 6.0119l0.10739 3.3734h-6.3912l-0.0769-2.1549c-0.0805-2.2574-0.42079-2.8876-1.3638-2.5257-0.35614 0.13666-0.43283 0.58594-0.43283 2.5355 0 2.8108-0.13819 2.647 4.303 5.0997 1.5989 0.88301 3.0493 1.8804 3.3073 2.2744 0.39765 0.60722 0.4595 1.4154 0.4595 6.0046 0 4.857-0.0453 5.38-0.53853 6.2196-0.97681 1.6627-1.8484 1.9555-6.0566 2.0347-2.048 0.0385-4.1721-0.0428-4.7202-0.18067zm19.871 0.0223c-1.2971-0.25263-2.2279-0.89713-2.7954-1.9356-0.42212-0.77247-0.47669-1.9123-0.55098-11.507l-0.0825-10.649h-1.5549v-5.0271h1.5717l0.148-6.7469 6.2177-0.149v6.896h2.3812v5.0271h-2.3812v9.0132c0 5.7071 0.10047 9.201 0.27389 9.525 0.18989 0.3548 0.55507 0.51177 1.1906 0.51177h0.91673v5.2917l-2.1828-0.0304c-1.2006-0.0167-2.619-0.11539-3.1522-0.21923zm10.891-0.20476c-0.5968-0.30394-1.1409-0.89494-1.5305-1.6622l-0.60442-1.1906 0.0752-11.774c0.0843-13.192 0.0516-12.962 1.9818-13.921 0.8612-0.42783 1.6242-0.4987 5.3695-0.4987 4.7591 0 5.3423 0.15045 6.474 1.6701 0.5961 0.80047 0.87975 4.0788 0.91429 10.567l0.0201 3.7703h-8.4667v3.5546c0 3.8727 0.22058 4.912 1.0425 4.912 0.81669 0 1.0742-0.82036 1.0742-3.4222v-2.3986h6.4212l-0.18628 3.9026c-0.20367 4.2667-0.50479 5.3027-1.8216 6.2668-0.67418 0.49362-1.184 0.55345-5.2917 0.621-3.9346 0.0647-4.6701 0.0113-5.4717-0.39688zm6.35-20.43c0-2.5933-0.30484-3.5261-1.1141-3.409-0.73879 0.10688-0.94241 0.8281-0.97623 3.4579l-0.0264 2.0505h2.1167zm10.118 2.827 0.068-18.058 6.2177-0.149v36.265h-6.3537zm10.319 0 0.068-18.058 6.2177-0.149v36.265h-6.3537zm10.254 3.3734v-14.701l6.0955 0.149v29.104l-6.0955 0.149zm1.4336-17.851c-0.8344-0.33755-1.9211-1.7659-2.1101-2.7735-0.80058-4.2675 4.7707-6.4295 7.0279-2.7273 1.0284 1.6867 0.45599 4.2094-1.1853 5.2238-0.9003 0.55642-2.7098 0.69071-3.7325 0.277zm1.2122-1.9926c0-0.3638 0.0999-0.66146 0.22211-0.66146 0.12217 0 0.35774 0.29766 0.5235 0.66146 0.20548 0.45098 0.51366 0.66146 0.96851 0.66146 0.80845 0 0.81963-0.10102 0.11995-1.0836-0.30095-0.42264-0.41746-0.76844-0.25891-0.76844s0.42167-0.29278 0.58471-0.65062c0.23739-0.52102 0.20869-0.78455-0.14406-1.3229-0.3741-0.57095-0.63902-0.6723-1.7573-0.6723h-1.3168v2.249c0 2.0726 0.0415 2.249 0.52916 2.249 0.38806 0 0.52917-0.17639 0.52917-0.66146zm0.1819-1.8907c-0.38921-0.38921-0.18452-1.1913 0.28112-1.1017 0.25466 0.04904 0.46302 0.31574 0.46302 0.59266 0 0.5264-0.43155 0.8216-0.74414 0.509z" stroke-width=".26458"/>
 </g>
</svg>
